<svg id="Grupo_2040" data-name="Grupo 2040" xmlns="http://www.w3.org/2000/svg" width="64.523" height="64.522" viewBox="0 0 64.523 64.522">
  <g id="Trazado_6486" data-name="Trazado 6486" transform="translate(0)" fill="none">
    <path d="M32.261,0A32.261,32.261,0,1,1,0,32.261,32.261,32.261,0,0,1,32.261,0Z" stroke="none"/>
    <path d="M 32.26137924194336 0.9999961853027344 C 28.04067993164062 0.9999961853027344 23.94675827026367 1.826396942138672 20.09334945678711 3.456256866455078 C 16.37088012695312 5.030715942382812 13.02755737304688 7.284908294677734 10.1562385559082 10.15621948242188 C 7.284927368164062 13.02752685546875 5.030727386474609 16.3708381652832 3.456260681152344 20.09328842163086 C 1.826408386230469 23.94669723510742 1 28.04059600830078 1 32.26128768920898 C 1 36.48197937011719 1.826408386230469 40.57587814331055 3.456260681152344 44.42928695678711 C 5.030727386474609 48.15173721313477 7.284927368164062 51.49504852294922 10.1562385559082 54.36635589599609 C 13.02755737304688 57.23766708374023 16.37088012695312 59.49185943603516 20.09334945678711 61.06631851196289 C 23.94675827026367 62.6961784362793 28.04067993164062 63.52257919311523 32.26137924194336 63.52257919311523 C 36.48207855224609 63.52257919311523 40.57599639892578 62.6961784362793 44.42940902709961 61.06631851196289 C 48.15187835693359 59.49185943603516 51.49520111083984 57.23766708374023 54.36651992797852 54.36635589599609 C 57.23783111572266 51.49504852294922 59.49202728271484 48.15173721313477 61.06649780273438 44.42928695678711 C 62.69635009765625 40.57587814331055 63.52275848388672 36.48197937011719 63.52275848388672 32.26128768920898 C 63.52275848388672 28.04059600830078 62.69635009765625 23.94669723510742 61.06649780273438 20.09328842163086 C 59.49202728271484 16.3708381652832 57.23783111572266 13.02752685546875 54.36651992797852 10.15621948242188 C 51.49520111083984 7.284908294677734 48.15187835693359 5.030715942382812 44.42940902709961 3.456256866455078 C 40.57599639892578 1.826396942138672 36.48207855224609 0.9999961853027344 32.26137924194336 0.9999961853027344 M 32.26137924194336 0 C 50.07884979248047 0 64.52275848388672 14.44386672973633 64.52275848388672 32.26128768920898 C 64.52275848388672 50.07870864868164 50.07884979248047 64.52257537841797 32.26137924194336 64.52257537841797 C 14.44390869140625 64.52257537841797 0 50.07870864868164 0 32.26128768920898 C 0 14.44386672973633 14.44390869140625 0 32.26137924194336 0 Z" stroke="none" fill="#c0d0e8"/>
  </g>
  <g id="Grupo_2039" data-name="Grupo 2039" transform="translate(26.781 19.752)">
    <g id="Componente_89" data-name="Componente 89">
      <path id="Trazado_2" data-name="Trazado 2" d="M48.331,33.627H45.08v11.91H40.154V33.627H37.812V29.441h2.342V26.733c0-1.937.92-4.97,4.969-4.97l3.648.015v4.063H46.125a1,1,0,0,0-1.045,1.141v2.463h3.681Z" transform="translate(-37.812 -21.763)" fill="#c0d0e8"/>
    </g>
  </g>
</svg>
