<svg id="Grupo_2042" data-name="Grupo 2042" xmlns="http://www.w3.org/2000/svg" width="64.523" height="64.522" viewBox="0 0 64.523 64.522">
  <g id="Elipse_274" data-name="Elipse 274" transform="translate(0)" fill="none" stroke="#c0d0e8" stroke-width="1">
    <ellipse cx="32.261" cy="32.261" rx="32.261" ry="32.261" stroke="none"/>
    <ellipse cx="32.261" cy="32.261" rx="31.761" ry="31.761" fill="none"/>
  </g>
  <g id="Grupo_955" data-name="Grupo 955" transform="translate(19.573 18.106)">
    <g id="Grupo_140" data-name="Grupo 140" transform="translate(0 0)">
      <path id="Trazado_40" data-name="Trazado 40" d="M389.29,288.3H378.813a7.458,7.458,0,0,1-7.45-7.449V269.674a7.459,7.459,0,0,1,7.45-7.45H389.29a7.459,7.459,0,0,1,7.449,7.45v11.179A7.458,7.458,0,0,1,389.29,288.3Zm-10.477-24.167a5.546,5.546,0,0,0-5.54,5.539v11.179a5.546,5.546,0,0,0,5.54,5.54H389.29a5.546,5.546,0,0,0,5.539-5.54V269.674a5.545,5.545,0,0,0-5.539-5.539Z" transform="translate(-371.363 -262.224)" fill="#c0d0e8"/>
      <path id="Trazado_41" data-name="Trazado 41" d="M384.116,282.224a6.936,6.936,0,0,1-6.928-6.928,7.047,7.047,0,0,1,2.124-5.027,6.622,6.622,0,0,1,4.838-1.9,7.176,7.176,0,0,1,5.177,2.1,6.706,6.706,0,0,1,1.717,4.85h0a7.1,7.1,0,0,1-2.052,4.87A6.816,6.816,0,0,1,384.116,282.224Zm-.16-11.524a4.31,4.31,0,0,0-3.017,1.243,4.7,4.7,0,0,0-1.416,3.353,4.594,4.594,0,1,0,9.187-.026c.06-2.775-1.669-4.482-4.628-4.568C384.04,270.7,384,270.7,383.956,270.7Z" transform="translate(-371.428 -262.292)" fill="#c0d0e8"/>
      <ellipse id="Elipse_16" data-name="Elipse 16" cx="1.616" cy="1.616" rx="1.616" ry="1.616" transform="translate(18.168 4.264)" fill="#c0d0e8"/>
    </g>
  </g>
</svg>
