<svg id="Grupo_2041" data-name="Grupo 2041" xmlns="http://www.w3.org/2000/svg" width="64.523" height="64.522" viewBox="0 0 64.523 64.522">
  <g id="Elipse_273" data-name="Elipse 273" transform="translate(0)" fill="none" stroke="#c0d0e8" stroke-width="1">
    <ellipse cx="32.261" cy="32.261" rx="32.261" ry="32.261" stroke="none"/>
    <ellipse cx="32.261" cy="32.261" rx="31.761" ry="31.761" fill="none"/>
  </g>
  <path id="Trazado_6485" data-name="Trazado 6485" d="M716.341,1155.827a11.679,11.679,0,0,1-3.317.894,5.724,5.724,0,0,0,2.541-3.146,11.657,11.657,0,0,1-3.671,1.381,5.806,5.806,0,0,0-4.215-1.8,5.7,5.7,0,0,0-5.629,6.983,16.492,16.492,0,0,1-11.908-5.942,5.608,5.608,0,0,0-.783,2.859,5.667,5.667,0,0,0,2.571,4.733,5.832,5.832,0,0,1-2.616-.711v.072a5.582,5.582,0,0,0,.395,2.06,5.769,5.769,0,0,0,4.241,3.518,5.994,5.994,0,0,1-1.525.2,5.711,5.711,0,0,1-1.086-.1,5.773,5.773,0,0,0,5.4,3.95,11.7,11.7,0,0,1-7.176,2.435,11.929,11.929,0,0,1-1.379-.079,16.557,16.557,0,0,0,8.856,2.555,16.083,16.083,0,0,0,16.046-12.748,15.659,15.659,0,0,0,.393-3.433c0-.245,0-.492-.016-.736A11.6,11.6,0,0,0,716.341,1155.827Z" transform="translate(-670 -1132.162)" fill="#c0d0e8"/>
</svg>
