<svg xmlns="http://www.w3.org/2000/svg" width="71" height="72" viewBox="0 0 71 72">
  <g id="Grupo_426" data-name="Grupo 426" transform="translate(0.183)">
    <ellipse id="Elipse_272" data-name="Elipse 272" cx="35.5" cy="36" rx="35.5" ry="36" transform="translate(-0.183)" fill="#00d369"/>
    <g id="Grupo_347" data-name="Grupo 347" transform="translate(15.671 15.881)">
      <path id="Trazado_787" data-name="Trazado 787" d="M141.058,161.187a19.2,19.2,0,0,0-38.368-.356c-.012.28-.022.559-.022.841a18.86,18.86,0,0,0,2.755,9.837l-3.465,10.223,10.631-3.379a19.231,19.231,0,0,0,28.481-16.681C141.071,161.508,141.063,161.348,141.058,161.187Zm-19.188,16.5a16.127,16.127,0,0,1-8.883-2.651l-6.2,1.972,2.017-5.948a15.853,15.853,0,0,1-3.073-9.391c0-.525.026-1.043.076-1.554a16.151,16.151,0,0,1,32.154.3c.033.413.054.83.054,1.251A16.1,16.1,0,0,1,121.87,177.687Z" transform="translate(-101.959 -142.618)" fill="#fff"/>
      <path id="Trazado_788" data-name="Trazado 788" d="M126.906,161.823c-.471-.235-2.787-1.364-3.218-1.518s-.746-.235-1.06.232-1.215,1.52-1.49,1.83-.548.353-1.019.118a12.824,12.824,0,0,1-3.785-2.318,14,14,0,0,1-2.618-3.233c-.275-.466-.028-.719.205-.952.214-.208.472-.545.707-.817a2.1,2.1,0,0,0,.171-.224,5.035,5.035,0,0,0,.3-.555.854.854,0,0,0-.04-.819c-.117-.233-1.06-2.533-1.45-3.468s-.785-.778-1.06-.778-.589-.037-.9-.037a1.735,1.735,0,0,0-1.255.584,5.22,5.22,0,0,0-1.647,3.894,5.8,5.8,0,0,0,.242,1.589,10.608,10.608,0,0,0,1.68,3.241c.235.309,3.257,5.18,8.039,7.049s4.785,1.248,5.649,1.168a4.757,4.757,0,0,0,3.177-2.22,3.906,3.906,0,0,0,.273-2.222C127.687,162.174,127.375,162.056,126.906,161.823Z" transform="translate(-98.201 -138.927)" fill="#fff"/>
    </g>
  </g>
</svg>
