<svg id="Grupo_449" data-name="Grupo 449" xmlns="http://www.w3.org/2000/svg" width="34.064" height="22.182" viewBox="0 0 34.064 22.182">
  <path id="Trazado_488" data-name="Trazado 488" d="M830.052,137.866H801.51a2.764,2.764,0,0,0-2.761,2.761v16.66a2.765,2.765,0,0,0,2.761,2.761h28.542a2.765,2.765,0,0,0,2.761-2.761v-16.66A2.764,2.764,0,0,0,830.052,137.866Zm.34,3.731v15.69a.341.341,0,0,1-.34.342H801.51a.343.343,0,0,1-.342-.342V141.6l14.42,9.684.192.13Zm-26.843-1.312h24.46l-12.229,8.21Z" transform="translate(-798.749 -137.866)" fill="#fff"/>
</svg>
