<svg xmlns="http://www.w3.org/2000/svg" width="26.037" height="37.041" viewBox="0 0 26.037 37.041">
  <g id="Grupo_2065" data-name="Grupo 2065" transform="translate(-2396.753 64.25)">
    <g id="Grupo_2064" data-name="Grupo 2064" transform="translate(2396.753 -64.25)">
      <path id="Trazado_6505" data-name="Trazado 6505" d="M2409.485-27.209a6.285,6.285,0,0,1-.828-.815c-2.185-3.116-4.386-6.222-6.512-9.378a37.231,37.231,0,0,1-4.348-8.335,16.445,16.445,0,0,1-1.042-5.8,13.04,13.04,0,0,1,9.4-12.19c.8-.221,1.627-.312,2.442-.464.081-.015.16-.04.24-.06h1.881c.709.122,1.427.206,2.126.371a13.053,13.053,0,0,1,9.831,10.868,15.826,15.826,0,0,1-1.145,7.883,41.525,41.525,0,0,1-4.615,8.483c-2.039,3-4.137,5.955-6.223,8.92a3.05,3.05,0,0,1-.624.516Zm.293-3.047c.05-.059.091-.1.124-.146,1.828-2.618,3.688-5.214,5.474-7.86a37.061,37.061,0,0,0,4.278-8.052,13.194,13.194,0,0,0,.883-6.308,10.852,10.852,0,0,0-11.81-9.4,10.89,10.89,0,0,0-9.378,7.777,12.163,12.163,0,0,0,.334,7.319,30.172,30.172,0,0,0,3.582,7.23c2.084,3.141,4.266,6.219,6.406,9.323A1.351,1.351,0,0,0,2409.778-30.256Z" transform="translate(-2396.753 64.25)" fill="#fff"/>
      <path id="Trazado_6506" data-name="Trazado 6506" d="M2477.274,9.781a6.511,6.511,0,1,1-6.493-6.528A6.522,6.522,0,0,1,2477.274,9.781Zm-2.17-.021a4.341,4.341,0,1,0-4.346,4.345A4.355,4.355,0,0,0,2475.1,9.759Z" transform="translate(-2457.742 3.259)" fill="#fff"/>
    </g>
  </g>
</svg>
