<svg xmlns="http://www.w3.org/2000/svg" width="31.008" height="31.009" viewBox="0 0 31.008 31.009">
  <g id="Grupo_904" data-name="Grupo 904" transform="translate(0)">
    <path id="Trazado_492" data-name="Trazado 492" d="M132.957,157.339a15.223,15.223,0,0,0-30.418-.282c-.01.222-.017.443-.017.666a14.952,14.952,0,0,0,2.184,7.8l-2.747,8.105,8.428-2.679a15.247,15.247,0,0,0,22.58-13.224C132.967,157.594,132.961,157.467,132.957,157.339Zm-15.213,13.082a12.785,12.785,0,0,1-7.042-2.1l-4.917,1.563,1.6-4.715a12.568,12.568,0,0,1-2.436-7.445c0-.416.021-.827.06-1.232a12.8,12.8,0,0,1,25.492.239c.026.328.043.658.043.992A12.765,12.765,0,0,1,117.744,170.421Z" transform="translate(-101.959 -142.618)" fill="#fff"/>
    <path id="Trazado_493" data-name="Trazado 493" d="M123.143,159.225c-.373-.186-2.21-1.082-2.551-1.2s-.591-.186-.84.184-.963,1.2-1.181,1.451-.435.28-.808.094a10.167,10.167,0,0,1-3-1.838,11.1,11.1,0,0,1-2.076-2.563c-.218-.37-.022-.57.163-.755.17-.165.374-.432.56-.648a1.655,1.655,0,0,0,.135-.177,3.989,3.989,0,0,0,.239-.44.677.677,0,0,0-.032-.649c-.092-.185-.84-2.008-1.149-2.749s-.622-.617-.84-.617-.467-.03-.716-.03a1.376,1.376,0,0,0-1,.463,4.138,4.138,0,0,0-1.306,3.087,4.6,4.6,0,0,0,.192,1.26,8.41,8.41,0,0,0,1.332,2.569c.186.245,2.582,4.107,6.373,5.589s3.794.989,4.479.926a3.771,3.771,0,0,0,2.519-1.76,3.1,3.1,0,0,0,.217-1.762C123.763,159.5,123.515,159.41,123.143,159.225Z" transform="translate(-100.386 -141.073)" fill="#fff"/>
  </g>
</svg>
