<svg id="visual" viewBox="0 0 1500 960" width="1500" height="960" xmlns="http://www.w3.org/2000/svg" xmlns:xlink="http://www.w3.org/1999/xlink" version="1.1"><rect x="0" y="0" width="1500" height="960" fill="#FFFFFF"></rect><path d="M0 325L27.8 343.8C55.7 362.7 111.3 400.3 166.8 413.8C222.3 427.3 277.7 416.7 333.2 421.2C388.7 425.7 444.3 445.3 500 455.7C555.7 466 611.3 467 666.8 465.5C722.3 464 777.7 460 833.2 451C888.7 442 944.3 428 1000 421.2C1055.7 414.3 1111.3 414.7 1166.8 419C1222.3 423.3 1277.7 431.7 1333.2 434.2C1388.7 436.7 1444.3 433.3 1472.2 431.7L1500 430L1500 961L1472.2 961C1444.3 961 1388.7 961 1333.2 961C1277.7 961 1222.3 961 1166.8 961C1111.3 961 1055.7 961 1000 961C944.3 961 888.7 961 833.2 961C777.7 961 722.3 961 666.8 961C611.3 961 555.7 961 500 961C444.3 961 388.7 961 333.2 961C277.7 961 222.3 961 166.8 961C111.3 961 55.7 961 27.8 961L0 961Z" fill="#cac8f7"></path><path d="M0 561L27.8 542.7C55.7 524.3 111.3 487.7 166.8 470.3C222.3 453 277.7 455 333.2 450.2C388.7 445.3 444.3 433.7 500 442.8C555.7 452 611.3 482 666.8 497.5C722.3 513 777.7 514 833.2 510C888.7 506 944.3 497 1000 495C1055.7 493 1111.3 498 1166.8 505.7C1222.3 513.3 1277.7 523.7 1333.2 515.8C1388.7 508 1444.3 482 1472.2 469L1500 456L1500 961L1472.2 961C1444.3 961 1388.7 961 1333.2 961C1277.7 961 1222.3 961 1166.8 961C1111.3 961 1055.7 961 1000 961C944.3 961 888.7 961 833.2 961C777.7 961 722.3 961 666.8 961C611.3 961 555.7 961 500 961C444.3 961 388.7 961 333.2 961C277.7 961 222.3 961 166.8 961C111.3 961 55.7 961 27.8 961L0 961Z" fill="#aca8f5"></path><path d="M0 628L27.8 632.7C55.7 637.3 111.3 646.7 166.8 644.7C222.3 642.7 277.7 629.3 333.2 621.8C388.7 614.3 444.3 612.7 500 604.5C555.7 596.3 611.3 581.7 666.8 577C722.3 572.3 777.7 577.7 833.2 586.2C888.7 594.7 944.3 606.3 1000 608.7C1055.7 611 1111.3 604 1166.8 590.3C1222.3 576.7 1277.7 556.3 1333.2 566.7C1388.7 577 1444.3 618 1472.2 638.5L1500 659L1500 961L1472.2 961C1444.3 961 1388.7 961 1333.2 961C1277.7 961 1222.3 961 1166.8 961C1111.3 961 1055.7 961 1000 961C944.3 961 888.7 961 833.2 961C777.7 961 722.3 961 666.8 961C611.3 961 555.7 961 500 961C444.3 961 388.7 961 333.2 961C277.7 961 222.3 961 166.8 961C111.3 961 55.7 961 27.8 961L0 961Z" fill="#8f88f1"></path><path d="M0 671L27.8 673.2C55.7 675.3 111.3 679.7 166.8 682.8C222.3 686 277.7 688 333.2 695.8C388.7 703.7 444.3 717.3 500 719.5C555.7 721.7 611.3 712.3 666.8 711.3C722.3 710.3 777.7 717.7 833.2 715.2C888.7 712.7 944.3 700.3 1000 695.2C1055.7 690 1111.3 692 1166.8 698.8C1222.3 705.7 1277.7 717.3 1333.2 724.3C1388.7 731.3 1444.3 733.7 1472.2 734.8L1500 736L1500 961L1472.2 961C1444.3 961 1388.7 961 1333.2 961C1277.7 961 1222.3 961 1166.8 961C1111.3 961 1055.7 961 1000 961C944.3 961 888.7 961 833.2 961C777.7 961 722.3 961 666.8 961C611.3 961 555.7 961 500 961C444.3 961 388.7 961 333.2 961C277.7 961 222.3 961 166.8 961C111.3 961 55.7 961 27.8 961L0 961Z" fill="#7168ec"></path><path d="M0 800L27.8 799.8C55.7 799.7 111.3 799.3 166.8 802.7C222.3 806 277.7 813 333.2 821.2C388.7 829.3 444.3 838.7 500 840.5C555.7 842.3 611.3 836.7 666.8 832.5C722.3 828.3 777.7 825.7 833.2 818.7C888.7 811.7 944.3 800.3 1000 798.7C1055.7 797 1111.3 805 1166.8 804.2C1222.3 803.3 1277.7 793.7 1333.2 796.5C1388.7 799.3 1444.3 814.7 1472.2 822.3L1500 830L1500 961L1472.2 961C1444.3 961 1388.7 961 1333.2 961C1277.7 961 1222.3 961 1166.8 961C1111.3 961 1055.7 961 1000 961C944.3 961 888.7 961 833.2 961C777.7 961 722.3 961 666.8 961C611.3 961 555.7 961 500 961C444.3 961 388.7 961 333.2 961C277.7 961 222.3 961 166.8 961C111.3 961 55.7 961 27.8 961L0 961Z" fill="#4f46e5"></path></svg>