<svg xmlns="http://www.w3.org/2000/svg" xmlns:xlink="http://www.w3.org/1999/xlink" width="108.074" height="135" viewBox="0 0 108.074 135">
  <defs>
    <linearGradient id="linear-gradient" y1="0.5" x2="1" y2="0.5" gradientUnits="objectBoundingBox">
      <stop offset="0" stop-color="#e9472f"/>
      <stop offset="1" stop-color="#e9822d"/>
    </linearGradient>
  </defs>
  <g id="Grupo_2056" data-name="Grupo 2056" transform="translate(-1058.05 70.25)">
    <g id="Grupo_2055" data-name="Grupo 2055" transform="translate(1058.05 -70.25)">
      <path id="Trazado_6493" data-name="Trazado 6493" d="M1126.587-70.25a20.353,20.353,0,0,1,1.625,1.32c2.746,2.722,5.444,5.494,8.222,8.183a5.473,5.473,0,0,0,2.2,1.275c3.75,1.083,7.515,2.12,11.3,3.056a3.123,3.123,0,0,1,2.538,2.618c.917,3.749,1.931,7.476,2.992,11.187a5.477,5.477,0,0,0,1.269,2.211q4.116,4.27,8.369,8.408a2.891,2.891,0,0,1,.856,3.19c-1.093,3.839-2.116,7.7-3.1,11.567a4.872,4.872,0,0,0-.015,2.291c.942,3.743,1.918,7.48,3,11.185a3.4,3.4,0,0,1-1.016,3.874c-2.75,2.59-5.411,5.278-8.023,8.008a6.385,6.385,0,0,0-1.446,2.543c-1.066,3.664-2.04,7.355-2.976,11.054a2.939,2.939,0,0,1-2.489,2.506c-1.361.256-2.683.718-4.131,1.119.278.52.49.943.725,1.351q6.911,11.977,13.825,23.951c.6,1.032,1.36,2.151.525,3.289-.883,1.2-2.169.558-3.286.267-3.556-.925-7.1-1.887-10.763-2.865-1.041,3.874-2.013,7.645-3.1,11.385a8.482,8.482,0,0,1-1.292,2.025h-1.318a16.849,16.849,0,0,1-1.607-2.007c-4.635-7.967-9.222-15.962-13.877-23.917a3.13,3.13,0,0,0-1.658-1.254c-2.471-.763-4.985-1.388-7.48-2.071-1.5-.411-2.22-1.337-1.946-2.476.3-1.239,1.392-1.741,2.945-1.331,2.248.592,4.512,1.134,6.729,1.826a1.866,1.866,0,0,0,2.173-.616c2.578-2.64,5.178-5.262,7.846-7.811a6.15,6.15,0,0,1,2.438-1.41q5.369-1.559,10.8-2.888a1.809,1.809,0,0,0,1.5-1.532c.943-3.652,1.908-7.3,2.948-10.925a5.207,5.207,0,0,1,1.211-2.109c2.627-2.715,5.311-5.377,8.014-8.017a1.792,1.792,0,0,0,.591-2.052c-1.007-3.5-1.963-7.014-2.8-10.556a7.444,7.444,0,0,1-.006-3.316c.853-3.583,1.838-7.136,2.847-10.679a1.617,1.617,0,0,0-.5-1.844c-2.694-2.65-5.379-5.31-7.994-8.037a5.822,5.822,0,0,1-1.346-2.327c-1.043-3.624-1.995-7.276-2.927-10.931a1.724,1.724,0,0,0-1.435-1.432q-5.546-1.412-11.05-2.984a5.215,5.215,0,0,1-2.1-1.223q-4.115-3.991-8.1-8.114a1.615,1.615,0,0,0-1.835-.487c-3.72,1.029-7.448,2.03-11.191,2.971a4.635,4.635,0,0,1-2.179,0q-5.485-1.388-10.929-2.933a2.083,2.083,0,0,0-2.4.62c-2.495,2.6-5.038,5.155-7.656,7.628a7.114,7.114,0,0,1-2.77,1.6c-3.491,1.029-7.019,1.935-10.552,2.815a1.924,1.924,0,0,0-1.587,1.606c-.922,3.612-1.877,7.217-2.918,10.8a5.822,5.822,0,0,1-1.347,2.326c-2.622,2.72-5.312,5.375-8.015,8.016a1.609,1.609,0,0,0-.483,1.844c1,3.545,1.978,7.1,2.833,10.683a7.107,7.107,0,0,1,.015,3.193c-.859,3.581-1.843,7.134-2.855,10.676a1.708,1.708,0,0,0,.5,1.963c2.7,2.641,5.386,5.3,8,8.03a5.813,5.813,0,0,1,1.324,2.338c1.041,3.625,1.993,7.277,2.928,10.931a1.641,1.641,0,0,0,1.338,1.363c3.7.948,7.387,1.917,11.054,2.97a5.514,5.514,0,0,1,2.216,1.29q3.983,3.844,7.821,7.836a2.159,2.159,0,0,0,2.537.63c2.136-.659,4.315-1.18,6.477-1.752,1.65-.436,2.716-.04,3.061,1.125.38,1.281-.318,2.229-1.985,2.677-2.415.649-4.849,1.234-7.235,1.974a3.311,3.311,0,0,0-1.745,1.333c-4.7,8.031-9.327,16.1-14.01,24.145a11.9,11.9,0,0,1-1.634,1.825h-1.055a9.789,9.789,0,0,1-1.51-2.325c-.981-3.275-1.805-6.6-2.693-9.9-.1-.374-.235-.739-.372-1.164-3.708.986-7.345,1.955-10.983,2.92a6.642,6.642,0,0,1-1.026.221c-1.925.195-2.739-.83-2.083-2.643a8.327,8.327,0,0,1,.675-1.277q6.871-11.916,13.747-23.83c.239-.414.46-.838.785-1.432-1.509-.407-2.9-.857-4.333-1.15a2.965,2.965,0,0,1-2.513-2.482c-.974-3.914-2.043-7.805-3.128-11.691a4.011,4.011,0,0,0-.951-1.658c-2.793-2.859-5.6-5.7-8.474-8.483a3.051,3.051,0,0,1-.937-3.406c1.094-3.791,2.1-7.608,3.06-11.435a5.167,5.167,0,0,0-.009-2.416c-.978-3.914-2.019-7.812-3.1-11.7a2.627,2.627,0,0,1,.766-2.848c2.884-2.831,5.754-5.676,8.571-8.573a5.146,5.146,0,0,0,1.218-2.093q1.6-5.63,3.024-11.309a3.17,3.17,0,0,1,2.582-2.591q5.62-1.381,11.187-2.97a5.76,5.76,0,0,0,2.321-1.327c2.757-2.646,5.427-5.38,8.143-8.069.495-.49,1.055-.914,1.585-1.368h1.318a1.2,1.2,0,0,0,.316.215q6.206,1.673,12.418,3.327a1.579,1.579,0,0,0,.766.073q6.57-1.79,13.131-3.615ZM1090.972,31.992c-1.614,2.79-3.278,5.673-4.95,8.552-.913,1.573-2.005,2.026-3.177,1.336-1.092-.644-1.173-1.693-.233-3.331,1.66-2.891,3.289-5.8,5.023-8.649.507-.832.477-1.451-.314-1.829-1.164-.556-2.428-.9-3.626-1.39-.879-.361-1.305-.05-1.755.738-3.542,6.212-7.134,12.4-10.709,18.589-.61,1.056-1.214,2.115-1.834,3.2.18.046.27.1.34.083q3.944-1.035,7.884-2.081c2.067-.544,2.83-.113,3.383,1.916.733,2.688,1.458,5.378,2.281,8.412l12.2-21.116Zm37.752,4.253,12.3,21.294c.781-2.9,1.479-5.479,2.167-8.06.664-2.488,1.272-2.844,3.756-2.188,2.6.686,5.2,1.367,7.823,2.055.019-.2.042-.253.024-.284q-6.33-11-12.676-22c-.134-.232-.489-.574-.634-.528-1.851.592-4.068.375-5.389,2.308.918,1.6,1.813,3.153,2.71,4.71,1.094,1.9,2.223,3.782,3.272,5.707a1.961,1.961,0,0,1-.649,2.864,2.021,2.021,0,0,1-2.715-.873c-.2-.285-.368-.6-.543-.9q-2.24-3.872-4.481-7.745a8.621,8.621,0,0,0-.549-.759Z" transform="translate(-1058.05 70.25)" fill="url(#linear-gradient)"/>
      <path id="Trazado_6494" data-name="Trazado 6494" d="M1140.206,50.989A38.949,38.949,0,0,1,1101.995,18.3a43.388,43.388,0,0,1-.47-4.315c-.1-1.6.579-2.46,1.831-2.516,1.3-.059,2.022.782,2.111,2.446a34.549,34.549,0,0,0,3.737,14.014,34.933,34.933,0,0,0,35.155,18.782A34.859,34.859,0,1,0,1106.273,4.4a6.144,6.144,0,0,1-.31,1.14,1.827,1.827,0,0,1-2.123,1.176,1.744,1.744,0,0,1-1.584-1.947,17.686,17.686,0,0,1,.634-3.086,38.813,38.813,0,0,1,75.837,5.079,38.835,38.835,0,0,1-33.406,43.788C1143.625,50.77,1141.911,50.846,1140.206,50.989Z" transform="translate(-1086.235 42.023)" fill="url(#linear-gradient)"/>
      <path id="Trazado_6495" data-name="Trazado 6495" d="M1179.51,62.777a17.936,17.936,0,0,1-2.23-.84c-2.491-1.251-4.974-2.522-7.4-3.888a2.411,2.411,0,0,0-2.669-.035c-2.487,1.387-5.042,2.651-7.552,4a4.872,4.872,0,0,1-7.29-5.493c.56-2.73.9-5.5,1.451-8.235a2.426,2.426,0,0,0-.867-2.538c-2.085-1.944-4.073-3.992-6.143-5.953a4.852,4.852,0,0,1,2.93-8.557c2.766-.343,5.517-.816,8.284-1.152a2.57,2.57,0,0,0,2.274-1.708c1.144-2.539,2.461-5,3.675-7.509a4.857,4.857,0,0,1,9.041-.067c1.214,2.508,2.54,4.964,3.676,7.507a2.721,2.721,0,0,0,2.425,1.766c2.766.347,5.519.8,8.282,1.173a4.852,4.852,0,0,1,2.874,8.505c-2.054,1.978-4.053,4.015-6.149,5.947a2.545,2.545,0,0,0-.893,2.7c.6,2.907,1.072,5.842,1.539,8.774C1185.242,60.161,1182.99,62.794,1179.51,62.777Zm-10.983-40.655c-1.648,3.33-3.21,6.231-4.531,9.237a5.139,5.139,0,0,1-4.652,3.3c-3.207.335-6.39.893-9.915,1.4.648.7,1.072,1.194,1.534,1.649,2.078,2.047,4.146,4.106,6.263,6.113a3.984,3.984,0,0,1,1.271,4.016c-.69,3.495-1.2,7.025-1.841,10.847a82.982,82.982,0,0,0,7.458-3.971c3.022-2.017,5.734-2.1,8.784-.043a79.117,79.117,0,0,0,7.513,3.984c-.617-3.62-1.015-6.852-1.754-10-.556-2.371.166-3.969,1.869-5.562,2.351-2.2,4.484-4.634,6.825-7.089-3.239-.464-6.422-.994-9.625-1.354-2.125-.239-3.65-.995-4.569-3.1C1171.812,28.484,1170.212,25.522,1168.527,22.122Z" transform="translate(-1114.476 13.188)" fill="url(#linear-gradient)"/>
    </g>
  </g>
</svg>
