<svg id="Grupo_2005" data-name="Grupo 2005" xmlns="http://www.w3.org/2000/svg" xmlns:xlink="http://www.w3.org/1999/xlink" width="53.298" height="65.607" viewBox="0 0 53.298 65.607">
  <defs>
    <linearGradient id="linear-gradient" y1="0.5" x2="1" y2="0.5" gradientUnits="objectBoundingBox">
      <stop offset="0" stop-color="#e9442f"/>
      <stop offset="1" stop-color="#e9822d"/>
    </linearGradient>
  </defs>
  <path id="Trazado_6241" data-name="Trazado 6241" d="M-1064.316-460.164a11.507,11.507,0,0,1,1.227.514,3.807,3.807,0,0,1,1.033,5.831,4.406,4.406,0,0,0-1.13,3.143q.032,23.379,0,46.758a4.171,4.171,0,0,0,1.089,2.964,3.834,3.834,0,0,1-1.692,6.2c-.178.06-.353.132-.529.2h-46.9c-.2-.074-.391-.152-.589-.222a3.823,3.823,0,0,1-1.671-6.123,4.426,4.426,0,0,0,1.131-3.143q-.032-23.38,0-46.76a4.174,4.174,0,0,0-1.09-2.964,3.845,3.845,0,0,1,1.75-6.224c.159-.051.314-.114.471-.172Zm-23.434,63.685q11.276,0,22.552,0a1.978,1.978,0,0,0,1.968-1.158,1.8,1.8,0,0,0-.368-2.131,5.67,5.67,0,0,1-1.509-4.147q.03-23.288,0-46.577a6.344,6.344,0,0,1,1.583-4.576,1.9,1.9,0,0,0-1.095-3.138,4.122,4.122,0,0,0-.83-.039q-18.644,0-37.287,0h-7.688a1.916,1.916,0,0,0-1.859,1.124,1.784,1.784,0,0,0,.333,2.134,5.817,5.817,0,0,1,1.53,4.27q-.034,23.192.005,46.385a6.52,6.52,0,0,1-1.6,4.7,1.9,1.9,0,0,0,1.145,3.117,4.128,4.128,0,0,0,.766.033Q-1098.93-396.478-1087.75-396.479Z" transform="translate(1114.416 460.164)" fill="url(#linear-gradient)"/>
  <path id="Trazado_6242" data-name="Trazado 6242" d="M-1014.566-339.923a7.359,7.359,0,0,1,4.075-2.132,8.888,8.888,0,0,1,1.274-.092c.841-.009,1.158.316,1.163,1.153a7.085,7.085,0,0,1-5.973,7.162c-.449.076-.561.242-.546.652.024.671.006,1.343.006,2.015l.265.175a1.526,1.526,0,0,1,.219-.458,8.062,8.062,0,0,1,5.658-2.322c1-.024,1.343.346,1.329,1.354a8.024,8.024,0,0,1-6.9,7.932c-.48.071-.6.231-.583.677.031.717.008,1.436.008,2.215a14.958,14.958,0,0,0,5.229-1.151,16.485,16.485,0,0,0,7.025-25.149,3.144,3.144,0,0,1-.329-.471.908.908,0,0,1,.28-1.247.864.864,0,0,1,1.216.117,6.882,6.882,0,0,1,.668.857,18.4,18.4,0,0,1-12.449,28.822,18.04,18.04,0,0,1-13.543-3.413c-.121-.087-.241-.177-.355-.273a.949.949,0,0,1-.264-1.4,1,1,0,0,1,1.426-.134c.856.559,1.689,1.165,2.588,1.645a15.35,15.35,0,0,0,6.576,1.8c0-.886.014-1.731-.018-2.573,0-.1-.244-.259-.393-.285a8,8,0,0,1-7.017-7.359,6.047,6.047,0,0,1-.037-.767c.01-.846.365-1.209,1.224-1.2a8.128,8.128,0,0,1,5.647,2.2c.14.131.277.265.417.4a1.155,1.155,0,0,0,.166.071c0-.853.014-1.665-.021-2.475,0-.084-.288-.2-.455-.226a7.125,7.125,0,0,1-6.023-7.071c-.012-.968.287-1.276,1.239-1.275a7.078,7.078,0,0,1,4.755,1.757,1.485,1.485,0,0,0,.462.29c-.093-1.112.371-2.2-.488-3.3a6.466,6.466,0,0,1,.71-8.622,1,1,0,0,1,1.609,0,6.541,6.541,0,0,1,.645,8.737,2.107,2.107,0,0,0-.5,1.514C-1014.54-341.232-1014.566-340.681-1014.566-339.923Zm-7.339,8.174c-.078,2.548,3.021,5.6,5.326,5.3A5.947,5.947,0,0,0-1021.9-331.749Zm7.425,5.348a5.814,5.814,0,0,0,5.322-5.307A5.812,5.812,0,0,0-1014.48-326.4Zm4.391-13.722c-2.2.145-4.452,2.421-4.326,4.374A4.953,4.953,0,0,0-1010.089-340.122Zm-10.9-.035c.084,2.057,2.238,4.421,4.409,4.348A5.082,5.082,0,0,0-1020.99-340.157Zm5.442-4.452a4.3,4.3,0,0,0,.008-5.3A4.413,4.413,0,0,0-1015.548-344.61Z" transform="translate(1042.178 370.838)" fill="url(#linear-gradient)"/>
  <path id="Trazado_6243" data-name="Trazado 6243" d="M-1066.355-357.517a18.35,18.35,0,0,1,16.323-18.338,18.142,18.142,0,0,1,13.142,3.559c.1.076.208.151.3.235a.946.946,0,0,1,.238,1.355,1,1,0,0,1-1.424.158,31.579,31.579,0,0,0-2.871-1.79,16.478,16.478,0,0,0-23.646,12.74,16.174,16.174,0,0,0,3.109,11.837c.6.829.643,1.39.109,1.779s-1.037.205-1.666-.651A18.743,18.743,0,0,1-1066.355-357.517Z" transform="translate(1074.57 390.36)" fill="url(#linear-gradient)"/>
  <path id="Trazado_6244" data-name="Trazado 6244" d="M-1057.771-434.235h-18.952a4.922,4.922,0,0,1-.64-.011.9.9,0,0,1-.865-.941.913.913,0,0,1,.854-.955,3.584,3.584,0,0,1,.575-.014h38.1a3.225,3.225,0,0,1,.575.017.91.91,0,0,1,.833.972.9.9,0,0,1-.885.923,5.782,5.782,0,0,1-.64.009Z" transform="translate(1084.411 440.262)" fill="url(#linear-gradient)"/>
  <path id="Trazado_6245" data-name="Trazado 6245" d="M-1057.75-111.462h18.952a5.077,5.077,0,0,1,.639.011.9.9,0,0,1,.867.94.907.907,0,0,1-.791.946,3.046,3.046,0,0,1-.638.025h-38.1a3.188,3.188,0,0,1-.575-.017.911.911,0,0,1-.834-.972.9.9,0,0,1,.884-.923,5.783,5.783,0,0,1,.64-.009Z" transform="translate(1084.41 171.042)" fill="url(#linear-gradient)"/>
</svg>
