<svg xmlns="http://www.w3.org/2000/svg" xmlns:xlink="http://www.w3.org/1999/xlink" width="117.232" height="117.303" viewBox="0 0 117.232 117.303">
  <defs>
    <linearGradient id="linear-gradient" y1="0.5" x2="1" y2="0.5" gradientUnits="objectBoundingBox">
      <stop offset="0" stop-color="#e9472f"/>
      <stop offset="1" stop-color="#e9822d"/>
    </linearGradient>
  </defs>
  <g id="Grupo_2057" data-name="Grupo 2057" transform="translate(-1455.68 77.243)">
    <path id="Trazado_6496" data-name="Trazado 6496" d="M1511.548-77.243h6.182a7.434,7.434,0,0,0,.991.2,55.87,55.87,0,0,1,15.918,3.45,58.622,58.622,0,0,1,34.108,76.677c-10.671,27.031-40.307,42.549-68.4,35.119-24.1-6.373-38.617-22.32-43.746-46.735-.444-2.115-.618-4.287-.918-6.432v-7.1a3.578,3.578,0,0,0,.169-.657,58.005,58.005,0,0,1,3.876-17.205,6.111,6.111,0,0,0,.193-1.413,12.214,12.214,0,0,0,1.439-2.3q13.395-26.963,42.951-32.672C1506.693-76.773,1509.134-76.94,1511.548-77.243Zm-32.325,50.076c.8-.871,1.368-1.53,1.982-2.137,1.57-1.553,2.879-1.347,3.87.6.9,1.766,1.8,3.531,2.642,5.324a1.3,1.3,0,0,0,1.388.868c3.625-.038,7.25.019,10.875-.037a2.74,2.74,0,0,1,2.68,1.537c1.427,2.477,2.957,4.895,4.383,7.372a1.59,1.59,0,0,0,1.641.9c1.639-.054,3.281-.022,4.922-.015,2.163.009,2.9.9,2.475,3.037-.4,2.056-.98,4.091-1.218,6.164a8.5,8.5,0,0,1-3.252,6.027c-.742.589-1.289,1.431-2.048,1.992a7.019,7.019,0,0,0-3.085,7.358,2.834,2.834,0,0,1-1.442,2.887q-2.886,2.061-5.67,4.262a1.928,1.928,0,0,0-.648,1.3c-.062,2.479-.013,4.96-.036,7.44-.02,2.057-1.122,2.847-3.063,2.219-1.594-.515-3.168-1.095-4.773-1.575a2.974,2.974,0,0,1-2.051-1.952c-1.083-2.807-2.258-5.579-3.324-8.392a7.18,7.18,0,0,1-.452-2.44c-.04-5.037-.021-10.074-.021-15.11V-1.4c-2.515-.5-4.935-1-7.364-1.448a3.112,3.112,0,0,1-2.531-1.866A36.764,36.764,0,0,0,1473-8.9a13.506,13.506,0,0,1-1.773-7.3c0-2.276.445-4.113,2.321-5.481a3.83,3.83,0,0,0,.5-.551c-.345-.248-.645-.477-.957-.685-2.7-1.8-5.429-3.546-8.071-5.421a5.322,5.322,0,0,1-1.6-2.094c-.563-1.231-.908-2.563-1.4-4a54.522,54.522,0,0,0,28.947,65.248c25.309,11.994,53.354,2.324,67.029-16.768-1.215-1.176-2.519-2.306-3.647-3.59a4.01,4.01,0,0,1-.92-2.2c-.133-1.784.025-3.587-.071-5.376a7.412,7.412,0,0,0-.629-2.712c-1.415-3-2.781-6.037-4.467-8.882a18.179,18.179,0,0,1-2.73-11.535c.053-.492-.121-1.319-.449-1.489-1.5-.78-2.509-2.512-4.471-2.409a3.738,3.738,0,0,0-.667.153c-1.775.438-3.542.917-5.331,1.292a3.165,3.165,0,0,1-1.766-.106c-4.428-1.85-8.847-3.728-13.224-5.7a2.63,2.63,0,0,1-1.366-1.643c-.72-4.4-1.3-8.824-1.928-13.239a2.606,2.606,0,0,1,.837-2.369c1.745-1.708,3.418-3.494,5.217-5.142a3.531,3.531,0,0,1,2.106-.891c3.661-.088,7.325-.029,10.989-.049a2.308,2.308,0,0,1,2.1,1.13c.917,1.4,1.817,2.824,2.812,4.173a2.441,2.441,0,0,0,1.348.853c1.675.358,3.374.612,5.068.878,1.539.242,3.189.9,4.6.576,3.171-.739,6.226-1.979,9.553-3.09l-5.9-7.857c-1.5,1-2.767,1.919-4.115,2.7a3.232,3.232,0,0,1-2.009.534c-4.7-.959-9.471-1.586-14-3.284a4.008,4.008,0,0,0-2.507-.054c-4.185,1.43-8.293,1.782-12.347-.388a1.622,1.622,0,0,0-.219-.064c-1.564-.568-2.027-1.628-1.29-3.149,1.179-2.434,2.416-4.841,3.614-7.267a2.193,2.193,0,0,1,2.208-1.3c1.755.03,3.521-.113,5.263.039,2,.174,3.406-.979,5.309-1.819a53.679,53.679,0,0,0-37.3-1.283,7.884,7.884,0,0,0,2.671,1.306c3.254.63,6.538,1.107,9.8,1.678,1.945.34,2.509,1.306,1.9,3.176-.515,1.594-1.093,3.169-1.573,4.773a2.786,2.786,0,0,1-2,1.992c-1.164.362-2.3.807-3.474,1.137a2.677,2.677,0,0,0-1.719,1.34q-2.233,3.86-4.6,7.644a4.855,4.855,0,0,1-1.5,1.508c-2.851,1.769-5.734,3.485-8.631,5.176a5.617,5.617,0,0,1-1.9.7q-4.461.71-8.94,1.3c-2.6.345-3.06.792-2.434,3.352a5.036,5.036,0,0,0,1.844,2.223,4.867,4.867,0,0,1,2,4.784A7.42,7.42,0,0,0,1479.224-27.167Zm83.518-16.622c-3.382,1.131-6.692,2.269-10.028,3.33a5.112,5.112,0,0,1-2.229.2c-3.5-.528-6.991-1.159-10.49-1.717a3.022,3.022,0,0,1-2.233-1.4c-.841-1.317-1.692-2.631-2.616-3.889a1.708,1.708,0,0,0-1.169-.631c-2.784-.054-5.569-.048-8.353-.008a1.932,1.932,0,0,0-1.191.468q-1.879,1.758-3.642,3.638a1.636,1.636,0,0,0-.379,1.178c.435,3.325.954,6.639,1.386,9.964a1.422,1.422,0,0,0,.986,1.325c3.479,1.452,6.925,2.982,10.408,4.424a3.123,3.123,0,0,0,1.742.106c1.824-.389,3.634-.851,5.434-1.343a3.313,3.313,0,0,1,3.02.5c1.454,1.045,2.936,2.061,4.473,2.978a3.041,3.041,0,0,1,1.637,3c-.071,1.866-.05,3.738,0,5.606a4.36,4.36,0,0,0,.414,1.738c1.466,3.014,2.815,6.1,4.524,8.977A18.844,18.844,0,0,1,1557.3,6.835a1.484,1.484,0,0,0,.008.569,2.368,2.368,0,0,0,.375.9c.781.885,1.61,1.727,2.441,2.606C1570.362-3.957,1572.283-26.151,1562.742-43.789ZM1494.654,25.4c.072-.146.1-.18.1-.214.01-2.06.045-4.12.014-6.179a2.7,2.7,0,0,1,1.223-2.425,33.178,33.178,0,0,1,3.223-2.368c2.752-1.483,4.01-3.594,3.389-6.742a2.819,2.819,0,0,1,1.073-2.626c2.078-2.022,4.109-4.091,6.156-6.145.241-.242.6-.473.669-.763.492-2.207.925-4.428,1.4-6.781-1.769,0-3.327-.025-4.884.008a2.6,2.6,0,0,1-2.514-1.44c-1.472-2.539-3.022-5.031-4.495-7.569a1.428,1.428,0,0,0-1.447-.8c-3.662.036-7.325-.016-10.986.034a2.593,2.593,0,0,1-2.681-1.682c-.722-1.578-1.549-3.109-2.4-4.789-2.42,2.418-4.743,4.72-7.032,7.056a1.684,1.684,0,0,0-.252.952,10.242,10.242,0,0,0,1.5,6.867c.563.852.876,1.867,1.427,2.73a2.267,2.267,0,0,0,1.25.944c2.451.556,4.928,1,7.389,1.509,1.656.345,2.1.909,2.1,2.593.006,3.7.2,7.415-.047,11.1a28.774,28.774,0,0,0,2.773,14.482A3.471,3.471,0,0,0,1494.654,25.4Zm13.152-89.342c-1.473-.251-2.846-.562-4.236-.706-3.626-.374-7.033-1.279-9.835-3.769a1.4,1.4,0,0,0-1.745-.149,54.552,54.552,0,0,0-27.422,27.314,2.419,2.419,0,0,0-.125,1.59c.752,2.436,1.573,4.853,2.428,7.256a2.642,2.642,0,0,0,.906,1.22c2.16,1.5,4.363,2.938,6.554,4.39.234.155.5.265.878.465,0-1,.052-1.845-.024-2.674a1.586,1.586,0,0,0-.514-1.059c-2.99-2.09-3.894-4.981-3.375-8.459a6.792,6.792,0,0,0,.007-.914c.021-1.789.538-2.432,2.263-2.7,1.807-.28,3.627-.478,5.432-.773,3.681-.6,7.319-.893,10.757-2.956,3.891-2.334,7.13-4.981,8.932-9.162a9,9,0,0,1,7.231-5.844.937.937,0,0,0,.429-.144c.25-.2.567-.395.683-.666C1507.325-62.371,1507.526-63.1,1507.805-63.94Zm44.382,5.974a53.1,53.1,0,0,0-12.29-8.922,1.519,1.519,0,0,0-1.134.147c-1.788.851-3.532,1.8-5.337,2.61a6.87,6.87,0,0,1-2.4.569c-1.636.086-3.28,0-4.919.046a1.382,1.382,0,0,0-1.03.438c-.757,1.351-1.417,2.757-2.121,4.166,1.782.835,3.434,1.342,5.335.636a31.192,31.192,0,0,1,4.647-1.177,3.571,3.571,0,0,1,1.884.066,79.507,79.507,0,0,0,13.392,3.349,2.049,2.049,0,0,0,1.286-.16C1550.391-56.7,1551.217-57.316,1552.187-57.966Z" transform="translate(0)" fill="url(#linear-gradient)"/>
  </g>
</svg>
