<svg xmlns="http://www.w3.org/2000/svg" xmlns:xlink="http://www.w3.org/1999/xlink" width="86.665" height="57.013" viewBox="0 0 86.665 57.013">
  <defs>
    <linearGradient id="linear-gradient" y1="0.5" x2="1" y2="0.5" gradientUnits="objectBoundingBox">
      <stop offset="0" stop-color="#e9442f"/>
      <stop offset="1" stop-color="#e9822d"/>
    </linearGradient>
  </defs>
  <path id="Trazado_6248" data-name="Trazado 6248" d="M-89.82-323.134c.819-2.2,2.758-1.6,4.507-1.717v-2.038c0-1.581-.008-3.161,0-4.742,0-.432-.039-.715-.567-.852a1.394,1.394,0,0,1-1.067-1.373c-.034-1.128-.05-2.258,0-3.384a1.5,1.5,0,0,1,1.441-1.5,18.539,18.539,0,0,1,1.858-.06c.672-.009,1.344,0,2.118,0v-.989c0-2.117.047-4.235-.011-6.35-.1-3.621.327-4.037,3.974-3.922,1.093.034,2.187.005,3.375.005,0-1.824,0-3.565,0-5.307a7.371,7.371,0,0,1,.039-1.013,1.19,1.19,0,0,1,1.3-1.168,1.191,1.191,0,0,1,1.226,1.248c.051.7.026,1.41.028,2.115,0,1.346,0,2.693,0,4.124,1.669,0,3.242,0,4.816,0,1.882,0,2.53.658,2.531,2.557q0,3.853,0,7.705v.993c1.159,0,2.226-.01,3.292,0,1.582.017,2.144.58,2.154,2.143.006.847.012,1.694-.006,2.54a1.671,1.671,0,0,1-1.249,1.705.706.706,0,0,0-.4.516c-.027,2.31-.018,4.621-.018,7h3.953v-.952q0-9.441,0-18.882c0-1.917.481-2.4,2.407-2.4q10.288,0,20.576,0c1.9,0,2.417.511,2.421,2.4q.009,4.233.018,8.467a1.557,1.557,0,0,0,.083.279h.86c2.625,0,5.25,0,7.875,0a2.277,2.277,0,0,1,2.577,2.6c0,2.2,0,4.4,0,6.819.186-.359.278-.539.373-.718a3.347,3.347,0,0,1,3.052-1.942c3.584-.034,7.169-.045,10.753,0,1.937.024,2.91,1.779,2.049,3.63-1.818,3.909-3.665,7.805-5.5,11.708-1.8,3.826-3.615,7.643-5.377,11.485a2.872,2.872,0,0,1-2.9,1.859q-32.642-.027-65.284-.016c-2.43,0-3.44-1.637-2.4-3.845.517-1.1.989-2.218,1.575-3.276a2.055,2.055,0,0,0-.337-2.67,26.828,26.828,0,0,1-5.569-9.871c-.182-.582-.371-1.161-.557-1.741Zm2.574.847c.39,1.165.687,2.19,1.074,3.181a28.6,28.6,0,0,0,4.552,7.384,2.569,2.569,0,0,0,2.311,1.075q23.241-.043,46.482-.018a8.646,8.646,0,0,1,1.182.053,1.118,1.118,0,0,1,1.014,1.167,1.117,1.117,0,0,1-.939,1.228,6.042,6.042,0,0,1-1.176.088q-23.029.006-46.058-.026c-1.157,0-1.82.217-2.218,1.386a37.1,37.1,0,0,1-1.7,3.678H-17.9a3.6,3.6,0,0,0,.676-.013c.174-.034.419-.112.483-.244.747-1.536,1.466-3.085,2.26-4.777h-1.082q-4.91,0-9.821,0c-1.145,0-1.75-.451-1.76-1.264s.595-1.259,1.735-1.274c.226,0,.452,0,.677,0,3.556,0,7.112-.015,10.668.014a1.066,1.066,0,0,0,1.139-.731c2.241-4.831,4.512-9.648,6.773-14.47.116-.247.212-.5.35-.833-3.335,0-6.575,0-9.815,0-1.235,0-1.4.145-1.56,1.361a3.374,3.374,0,0,1-2.591,2.9,8.392,8.392,0,0,1-1.846.145q-32.173,0-64.346-.006Zm25.861-13.908H-84.393v1.341c.932,0,1.828-.026,2.722.008a1.134,1.134,0,0,1,1.194,1.17,1.155,1.155,0,0,1-1.067,1.294c-.378.067-.766.077-1.163.113v7.378h19.62v-7.433h-.991q-5.461,0-10.922,0a4.094,4.094,0,0,1-1.087-.111,1.017,1.017,0,0,1-.83-1.27,2.39,2.39,0,0,1,.974-1.091c.238-.161.658-.069,1-.069q6.265,0,12.53,0h1.031Zm-5.473-2.632v-8.638H-78.919v8.638Zm33.127,2.807v-8.51h-8.783v8.51Zm-8.766,2.633v8.512h8.779v-8.512Zm-11.41-11.143v8.508h8.762v-8.508Zm-.01,19.647h8.763v-8.5h-8.763Zm31.62.012v-8.507h-8.766v8.507Z" transform="translate(89.82 357.544)" fill="url(#linear-gradient)"/>
</svg>
