<svg id="Grupo_2006" data-name="Grupo 2006" xmlns="http://www.w3.org/2000/svg" xmlns:xlink="http://www.w3.org/1999/xlink" width="69.009" height="62.437" viewBox="0 0 69.009 62.437">
  <defs>
    <linearGradient id="linear-gradient" y1="0.5" x2="1" y2="0.5" gradientUnits="objectBoundingBox">
      <stop offset="0" stop-color="#e9442f"/>
      <stop offset="1" stop-color="#e9822d"/>
    </linearGradient>
  </defs>
  <path id="Trazado_6246" data-name="Trazado 6246" d="M-617.384-373.73v-39.087a5.007,5.007,0,0,1,.783-1.225c2.407-2.056,4.846-4.075,7.288-6.09a.975.975,0,0,1,1.437.132,1.01,1.01,0,0,1-.138,1.393c-.159.158-.338.295-.511.439q-1.994,1.659-3.991,3.313a2.189,2.189,0,0,1-.458.226l.17.16h23.138c-.119-.126-.17-.194-.234-.247q-4.634-3.856-9.272-7.708c-.117-.1-.27-.234-.394-.223-1.626.15-3.451-.633-4.77.99a.378.378,0,0,1-.11.077.986.986,0,0,1-1.34-.169.928.928,0,0,1,.09-1.382c.931-.825,1.8-1.814,3.251-1.582.03,0,.069-.047.1-.073,0-1.156,0-2.312,0-3.521-1.456,0-2.867.012-4.277,0a1.78,1.78,0,0,1-1.871-1.859c-.017-.965-.021-1.932,0-2.9a1.751,1.751,0,0,1,1.614-1.763,6,6,0,0,1,.739-.032q23.245,0,46.49,0a6.605,6.605,0,0,1,.673.021,1.768,1.768,0,0,1,1.7,1.824c.02.965.023,1.932,0,2.9a1.782,1.782,0,0,1-1.852,1.811c-.314.009-.629,0-.943,0h-3.356v3.659a3.119,3.119,0,0,1,2.851,1.05c3.555,2.994,7.152,5.939,10.7,8.945a12.7,12.7,0,0,1,1.5,1.836v20.487a1.071,1.071,0,0,1-1.322.651c-.62-.2-.737-.723-.7-1.305.01-.157,0-.314,0-.472v-18.913H-566v37.854h15.6v-.79q0-6.1,0-12.194c0-.566.037-1.091.657-1.338s1,.138,1.369.551v14.422a2.04,2.04,0,0,1-2.113,1.429q-13.983-.015-27.967-.009a1.872,1.872,0,0,1-2.115-2.119q-.005-18.734,0-37.469a2.8,2.8,0,0,1,1.071-2.287q5.578-4.62,11.131-9.271a3.446,3.446,0,0,1,2.757-1.123c.029,0,.066-.053.081-.066v-3.471h-34.687v3.566a2.949,2.949,0,0,1,2.242.595q5.693,4.8,11.446,9.523a3.448,3.448,0,0,1,1.362,2.9q-.034,18.364-.014,36.728c0,1.912-.58,2.494-2.487,2.495-9.075,0-18.15-.011-27.225.015A2.432,2.432,0,0,1-617.384-373.73Zm30.114-.779v-37.849h-15.552v37.849Zm-28.057-37.872v37.876h3.694v-37.876Zm36.814,0v37.869h3.693v-37.869Zm2.359-2.085h23.274a1.134,1.134,0,0,0-.137-.2q-4.684-3.9-9.378-7.79a1.234,1.234,0,0,0-.606-.207c-2.145-.281-4.087.058-5.536,1.859a1.394,1.394,0,0,1-.208.171ZM-604.918-387.8v-4.59h-4.594v4.59Zm36.838-4.586h-4.61v4.559h4.61ZM-604.9-412.364h-4.627v4.556h4.627Zm32.189-.01v4.561h4.607v-4.561Zm-36.8,33.294v4.561h4.585v-4.561Zm41.427.01h-4.63v4.552h4.63Zm-41.457-22.075h4.609v-4.53h-4.609Zm41.428.022v-4.548h-4.585v4.548Zm-41.4,2.082v4.546h4.589v-4.546Zm36.8,0v4.547h4.6v-4.547Zm-32.223,17.887V-385.7h-4.594v4.544Zm32.213-.03h4.6v-4.5h-4.6Zm-21.935-51.6c1.359.793,2.552,1.493,3.753,2.181a.439.439,0,0,0,.363.027c1.218-.692,2.428-1.4,3.64-2.1l-.039-.106Zm15.842-.01-.052.114c1.176.686,2.35,1.377,3.532,2.052a.513.513,0,0,0,.421.041c1.217-.687,2.423-1.394,3.631-2.1l-.043-.112Zm-15.948,2.45.054-.122c-1.19-.693-2.377-1.389-3.572-2.073a.448.448,0,0,0-.369-.034c-1.227.7-2.445,1.413-3.665,2.124l.05.1Zm15.633-.013.043-.1c-.57-.332-1.139-.667-1.711-1-.68-.391-1.365-1.084-2.044-1.08-.708,0-1.414.679-2.114,1.072-.586.329-1.163.675-1.9,1.107Zm15.831,0c-1.377-.8-2.58-1.509-3.792-2.2a.439.439,0,0,0-.368,0c-1.21.69-2.412,1.395-3.617,2.1l.043.1Zm-43.149-.032,3.926-2.285-.058-.119h-3.868Zm43.247-2.4-.047.12,3.917,2.277v-2.4Z" transform="translate(617.384 434.863)" fill="url(#linear-gradient)"/>
</svg>
