<svg xmlns="http://www.w3.org/2000/svg" xmlns:xlink="http://www.w3.org/1999/xlink" width="126.15" height="126.152" viewBox="0 0 126.15 126.152">
  <defs>
    <linearGradient id="linear-gradient" y1="0.5" x2="1" y2="0.5" gradientUnits="objectBoundingBox">
      <stop offset="0" stop-color="#e9472f"/>
      <stop offset="1" stop-color="#e9822d"/>
    </linearGradient>
  </defs>
  <g id="Grupo_2058" data-name="Grupo 2058" transform="translate(-1859.253 129.72)">
    <path id="Trazado_6497" data-name="Trazado 6497" d="M1956.9-117.158l-7.076-7.067L1942.7-117.1c.009,0,.292.006.572.03a2.089,2.089,0,0,1,2.157,2.3c.013,16.679.009,33.359.009,50.144h-4.167v-39.833h-1.539q-34.61,0-69.22,0c-4.539,0-7.047,2.524-7.05,7.085,0,2.488,0,4.977,0,7.546h-4.087c0-3.31-.322-6.617.072-9.837.668-5.467,5.083-8.992,10.7-8.995q34.676-.014,69.352,0h1.646v-4.2c-1.277,0-2.533-.013-3.79,0a2.159,2.159,0,0,1-2.232-1.282,2.08,2.08,0,0,1,.6-2.492q6.13-6.129,12.267-12.252a2.075,2.075,0,0,1,3.332.027q6.154,6.105,12.264,12.254a2.066,2.066,0,0,1,.607,2.382,2.117,2.117,0,0,1-2.181,1.361c-1.264-.009-2.527,0-3.877,0v4.2c2.508,0,4.99,0,7.471,0,7,0,11.358,4.379,11.359,11.408q0,19.768,0,39.535v1.517h-4.2v-1.551q0-19.768,0-39.535c0-4.714-2.477-7.169-7.229-7.17h-7.471v37.772h-4.218v-47.094C1953.85-116.459,1954.249-116.907,1956.9-117.158Z" fill="url(#linear-gradient)"/>
    <path id="Trazado_6498" data-name="Trazado 6498" d="M1914.619,8.647h4.2V7.132q0-14.515,0-29.03c0-2.416.605-3.021,3.019-3.022q5.517,0,11.034,0c2.061,0,2.76.7,2.76,2.755q.006,14.646,0,29.293v1.5h4.2V7.046q0-21.806,0-43.611c0-2.492.584-3.069,3.1-3.07,3.722,0,7.444-.009,11.166,0,1.742.006,2.539.755,2.541,2.442q.015,17.405,0,34.81c0,.128-.029.256-.056.482h-4.123V-35.365H1944.1v48.2h-54.634V8.759h8.342V7.221q0-7.356,0-14.712c0-1.987.711-2.708,2.667-2.713q5.649-.013,11.3,0c2.162,0,2.846.672,2.848,2.8q.007,7.29,0,14.581Zm16.723.006V-20.609H1923.1V8.653Zm-29.228-14.6V8.637h8.215V-5.951Z" transform="translate(-19.625 -58.523)" fill="url(#linear-gradient)"/>
    <path id="Trazado_6499" data-name="Trazado 6499" d="M1895.07,78.4V74.3h4.669l5.051-16.831H1903.3q-16.353,0-32.7,0c-6.923,0-11.318-4.395-11.319-11.316q0-24.036,0-48.073V-3.411h4.134V40.61h58.846v4.216H1863.7a6.494,6.494,0,0,0,6.421,8.436q26.269.019,52.538.005h1.674v4.2h-2.152q-5.976,0-11.952,0c-.589,0-1.066-.022-1.288.74-1.534,5.243-3.115,10.472-4.676,15.707a1.042,1.042,0,0,0,.03.315h27.79l-2.278-7.715,3.982-1.239,2.743,9.033h4.658V78.4Z" transform="translate(-0.011 -82.059)" fill="url(#linear-gradient)"/>
    <path id="Trazado_6500" data-name="Trazado 6500" d="M2089.359,109.211a26.06,26.06,0,0,1-13.786,3.567,25.245,25.245,0,1,1,26.006-23.891,23.863,23.863,0,0,1-2.953,10.515,1.22,1.22,0,0,0,.255,1.765q4.687,4.6,9.286,9.28a6.287,6.287,0,0,1-3.272,10.616,6.218,6.218,0,0,1-5.844-1.932q-4.464-4.448-8.91-8.915A10.872,10.872,0,0,1,2089.359,109.211Zm-33.983-21.693a21.017,21.017,0,1,0,21.254-20.976A21.044,21.044,0,0,0,2055.376,87.518ZM2092.8,106.95c3.11,3.109,6.216,6.238,9.355,9.335a2.1,2.1,0,1,0,2.926-3c-3.1-3.139-6.226-6.244-9.332-9.35Z" transform="translate(-124.643 -124.76)" fill="url(#linear-gradient)"/>
    <path id="Trazado_6501" data-name="Trazado 6501" d="M2075.277,103.1A16.814,16.814,0,1,1,2092.1,120,16.83,16.83,0,0,1,2075.277,103.1Zm4.2.129a12.609,12.609,0,1,0,12.564-12.652A12.636,12.636,0,0,0,2079.481,103.231Z" transform="translate(-140.343 -140.389)" fill="url(#linear-gradient)"/>
    <path id="Trazado_6502" data-name="Trazado 6502" d="M2107.821,110.568v4.058a4.506,4.506,0,0,0-4.219,4.217h-4.01C2099.156,115.1,2102.865,110.419,2107.821,110.568Z" transform="translate(-156.117 -156.104)" fill="url(#linear-gradient)"/>
  </g>
</svg>
